<svg t="1581384774096" class="icon" viewBox="0 0 1024 1024" version="1.1" xmlns="http://www.w3.org/2000/svg" p-id="1140" width="200" height="200"><path d="M402.82389764 121.08769974l44.72794998 63.88281773a110.20700643 110.20700643 0 0 0 90.22076203 46.95603347h291.44665352v416.78467511c0 65.84486219-31.5922314 128.43073679-88.92381886 176.25139904-60.45755479 50.41455148-141.53319881 78.14920558-228.29544431 78.14920558s-167.80463296-27.7346541-228.29544431-78.14920558c-57.33158746-47.75415211-88.89056381-110.34002671-88.89056381-176.25139904V121.08769974h208.00990576m4.98824662-59.85896509H185.20330293a50.24827615 50.24827615 0 0 0-50.24827615 50.2815312v537.06793995c0 173.52448953 168.80228346 314.19305955 377.04497322 314.19305955S889.07822829 822.03618667 889.07822829 648.5782058v-6.21868111-420.01040762A50.2815312 50.2815312 0 0 0 838.66367681 172.06758587h-300.89106716a50.24827615 50.24827615 0 0 1-41.20292037-21.41620783l-47.58787825-67.97318051a50.2815312 50.2815312 0 0 0-41.16966677-21.44946288z" fill="#2c2c2c" p-id="1141"></path><path d="M668.49794006 478.51223427a23.87707679 23.87707679 0 0 0-20.55157757-11.77226383h-73.16095897l84.73369238-136.34542033a23.87707679 23.87707679 0 0 0-20.28553853-36.58047948h-178.91179838a23.91033187 23.91033187 0 0 0-23.44476096 19.4209083l-47.72089704 253.40295412a23.91033187 23.91033187 0 0 0 19.02184899 27.86767435 24.57543022 24.57543022 0 0 0 4.42291195 0.39905932h67.97318051l-22.84617123 194.07606858a23.87707679 23.87707679 0 0 0 44.59492971 14.3328965l166.44117969-301.38989167a23.87707679 23.87707679 0 0 0-0.33255067-23.6775464zM566.9704837 160.26206699h-18.12396516a50.34804134 50.34804134 0 0 1-41.76825502-22.24758152l-41.66849127-62.12030515a9.41116003 9.41116003 0 0 1 7.81491981-14.66544567h31.52572277a25.0742562 25.0742562 0 0 1 20.88412677 11.14041753l49.15086192 73.16095899a9.41116003 9.41116003 0 0 1-7.81491982 14.73195582zM645.78478764 160.26206699h-31.52572129a25.14076486 25.14076486 0 0 1-20.88412823-11.10716396l-49.15086193-73.16095753a9.41116003 9.41116003 0 0 1 7.81492129-14.66544714h31.52572128a25.0742562 25.0742562 0 0 1 20.88412825 11.14041903l49.15086191 73.16095751A9.41116003 9.41116003 0 0 1 645.78478764 160.26206699z" fill="#2c2c2c" p-id="1142"></path></svg>