<svg t="1571975817678" class="icon" viewBox="0 0 1024 1024" version="1.1"
  xmlns="http://www.w3.org/2000/svg" p-id="4112" width="48" height="48">
  <path d="M614.75804 265.730654V174.902172c149.503477 0 270.795852 126.565957 270.795853 282.72541 0 19.558332 15.155147 35.379076 33.791881 35.379076 18.739134 0 33.894281-15.871944 33.894282-35.327876 0-195.224917-151.55147-353.432363-338.430816-353.381163V13.469137c0-12.902355-8.44797-17.25434-18.790334-9.676766L430.489885 125.801544c-10.495963 7.731173-10.342364 20.01913 0 27.647903L595.967706 275.45862c10.495963 7.679973 18.739134 3.327988 18.739135-9.727966z m54.732609 148.837879c2.201592 0 3.993586 1.791994 3.993586 3.993586v498.686255a3.993586 3.993586 0 0 1-3.993586 3.942386H173.569185a3.993586 3.993586 0 0 1-4.044786-3.993586V418.562119c0-2.201592 1.791994-3.993586 4.044786-3.993586h495.870264z m0-72.140547H173.569185c-42.086253 0-76.134134 34.099081-76.134134 76.134133v498.686255c0 41.983853 34.047881 76.082934 76.134134 76.082933h495.870264c41.983853 0 76.134134-34.099081 76.134133-76.134133V418.562119c0-42.035053-34.099081-76.134134-76.134133-76.134133z" p-id="4113" fill="#333333"></path>
</svg>
