<svg t="1571102012085" class="icon" viewBox="0 0 1024 1024" version="1.1"
  xmlns="http://www.w3.org/2000/svg" p-id="5869" width="48" height="48">
  <path d="M180.544 196.992h389.44s63.488 1.984 64.64 57.728c1.152 56.384-64.64 56.512-64.64 56.512h-209.408s-49.6-7.552-69.44 44.48c-7.68 20.16-73.472 203.776-99.072 284.288-7.232 22.72 10.048 28.864 24.128 29.248 14.72 0.512 27.968 0.256 40.192 0 16.384-0.128 30.272-6.4 37.888-29.248 16.384-49.728 69.696-182.4 76.608-199.872 17.856-45.12 41.28-40.512 67.136-40.512h491.712c61.12 0 84.032 33.024 66.304 83.968L921.6 849.344C902.592 908.032 845.44 960 784.32 960H182.656C118.912 960 64 905.6 64 844.48V310.08c0-61.056 55.488-113.088 116.544-113.088z m583.104 70.656c-29.184-2.304-34.752-3.904-8.64-29.952 18.24-19.968 41.536-38.592 41.536-38.592 0.704-1.792-18.176-47.872-95.168-81.472s-188.864-0.704-219.008 14.848c-14.272 12.224-57.6 19.136-18.24-20.8 66.624-62.528 161.024-101.696 263.232-72.576 95.104 27.328 139.392 82.368 142.72 89.92-0.448 0.576-0.576 0.96 0.064 0.96 0 0 0.192-0.384-0.064-0.96 2.048-2.816 16.256-13.248 40.64-35.712 20.864-21.248 26.944-16 29.376 9.856 3.008 48.64 1.344 187.456 1.344 187.456s-130.048-16.128-177.792-22.976z" p-id="5870" fill="#dbdbdb"></path>
</svg>
