<?xml version="1.0" standalone="no"?><!DOCTYPE svg PUBLIC "-//W3C//DTD SVG 1.1//EN" "http://www.w3.org/Graphics/SVG/1.1/DTD/svg11.dtd"><svg t="1570693906280" class="icon" viewBox="0 0 1024 1024" version="1.1" xmlns="http://www.w3.org/2000/svg" p-id="3513" xmlns:xlink="http://www.w3.org/1999/xlink" width="48" height="48"><defs><style type="text/css"></style></defs><path d="M938.666667 938.666667H85.333333c-47.061333 0-85.333333-38.314667-85.333333-85.432889V170.808889C0 123.676444 38.229333 85.333333 85.205333 85.333333h354.033778l86.912 85.333334H938.666667c47.061333 0 85.333333 38.328889 85.333333 85.432889v597.134222C1024 900.352 985.728 938.666667 938.666667 938.666667zM85.205333 142.222222A28.472889 28.472889 0 0 0 56.888889 170.808889v682.424889C56.888889 868.977778 69.646222 881.777778 85.333333 881.777778h853.333334c15.687111 0 28.444444-12.8 28.444444-28.544V256.099556A28.515556 28.515556 0 0 0 938.666667 227.555556H502.883556l-86.912-85.333334H85.205333z" fill="#666666" p-id="3514"></path><path d="M49.777778 272.896h924.444444v56.888889h-924.444444z" fill="#666666" p-id="3515"></path></svg>